<svg xmlns="http://www.w3.org/2000/svg" xmlns:xlink="http://www.w3.org/1999/xlink" version="1.1" x="0px" y="0px" viewBox="0 0 64 80" style="enable-background:new 0 0 64 64;" xml:space="preserve"><style type="text/css">
	.st0{clip-path:url(#SVGID_00000010278787319854890950000011479037049852931497_);}
</style><g><defs><rect id="b" width="64" height="64"/></defs><clipPath id="a"><use xlink:href="#b" style="" overflow="visible"/></clipPath><g style="clip-path:url(#a);"><path d="M32,4.3C16.7,4.3,4.3,16.7,4.3,32c0,15.3,12.4,27.7,27.7,27.7c15.3,0,27.7-12.4,27.7-27.7C59.7,16.7,47.3,4.3,32,4.3z     M32,57.7C17.8,57.7,6.3,46.2,6.3,32S17.8,6.3,32,6.3S57.7,17.8,57.7,32S46.2,57.7,32,57.7z"/><path d="M42.7,31H33v-9.7c0-0.6-0.4-1-1-1s-1,0.4-1,1V31h-9.7c-0.6,0-1,0.4-1,1s0.4,1,1,1H31v9.7c0,0.6,0.4,1,1,1s1-0.4,1-1V33    h9.7c0.6,0,1-0.4,1-1S43.2,31,42.7,31z"/></g></g><text x="0" y="79" fill="#000000" font-size="5px" font-weight="bold" font-family="'Helvetica Neue', Helvetica, Arial-Unicode, Arial, Sans-serif">Created by Fourupstudio</text><text x="0" y="84" fill="#000000" font-size="5px" font-weight="bold" font-family="'Helvetica Neue', Helvetica, Arial-Unicode, Arial, Sans-serif">from the Noun Project</text></svg>